# xmcd
#
# Track frame offsets:
#	150
#	12799
#	26749
#	42968
#	58401
#	76712
#	94776
#	110295
#	129776
#	143254
#	157578
#	172805
#	186469
#
# Disc length: 2655 seconds
#
# Revision: 0
# Processed by: cddbd v1.4PL0 Copyright (c) Steve Scherf et al.
# Submitted via: EasyCDDAExtractor 4.6.9.1
#
DISCID=900a5d0d
DTITLE=Toby Keith - Pull My Chain
DYEAR=2001
DGENRE=Country
TTITLE0=I'm Just Talkin' About Tonight
TTITLE1=I Wanna Talk About Me
TTITLE2=I Can't Take You Anywhere
TTITLE3=You Leave Me Weak
TTITLE4=Tryin' To Matter
TTITLE5=Pull My Chain
TTITLE6=The Sha La La Song
TTITLE7=Pick 'em Up And Lay'em Down
TTITLE8=Forever Hasn't Got Here Yet
TTITLE9=Yesterday's Rain
TTITLE10=My List
TTITLE11=You Didn't Have As Much To Lose
TTITLE12=Gimme 8 Seconds
EXTD=
EXTT0=
EXTT1=
EXTT2=
EXTT3=
EXTT4=
EXTT5=
EXTT6=
EXTT7=
EXTT8=
EXTT9=
EXTT10=
EXTT11=
EXTT12=
PLAYORDER=
